<svg xmlns="http://www.w3.org/2000/svg" viewBox="0 0 190 28.754">
  <g transform="translate(4223.44 507.729)">
    <path id="Caminho_22468" data-name="Caminho 22468" d="M32.449,30.655H26.56V26.48H43.525v4.175H37.639v15.5h-5.19Z" transform="translate(-4250 -534.133)" fill="#f7955b"></path>
    <path id="Caminho_22469" data-name="Caminho 22469" d="M104.957,26.48H99.013l-4.356,6.031-4.3-6.031H84.386l7.368,9.742L85.51,44.485l-8.426-18H73.01L63.83,46.156h5.157L75.1,31.923l6.11,14.232,8.981,0,4.465-6.2L98.336,45.1l2.946-3.968L97.56,36.222Z" transform="translate(-4273.763 -534.133)" fill="#f7955b"></path>
    <path id="Caminho_22470" data-name="Caminho 22470" d="M220.345,28.843H213.51V26.89h16.015v1.953h-6.864V46.566h-2.316Z" transform="translate(-4369.196 -534.395)" fill="#fff"></path>
    <path id="Caminho_22471" data-name="Caminho 22471" d="M280.81,46.566H278.3l-3.349-6.31a3.671,3.671,0,0,0-1.45-1.577,4.9,4.9,0,0,0-2.247-.431h-3.671v8.336H265.32V26.89h8.093a7.406,7.406,0,0,1,4.9,1.424A5.168,5.168,0,0,1,280,32.5a5.233,5.233,0,0,1-1.3,3.7,6.078,6.078,0,0,1-3.7,1.772,3.294,3.294,0,0,1,1.326.754,5.313,5.313,0,0,1,1.044,1.424Zm-7.593-10.213a5.234,5.234,0,0,0,3.418-.946,3.535,3.535,0,0,0,1.131-2.874,3.415,3.415,0,0,0-1.116-2.82,5.354,5.354,0,0,0-3.432-.921h-5.636v7.56Z" transform="translate(-4402.229 -534.395)" fill="#fff"></path>
    <path id="Caminho_22472" data-name="Caminho 22472" d="M365.95,28.843H359.1V26.89h16.019v1.953h-6.864V46.566h-2.3Z" transform="translate(-4462.022 -534.395)" fill="#fff"></path>
    <path id="Caminho_22473" data-name="Caminho 22473" d="M468.476,35.929v9.089a11.449,11.449,0,0,1-3.055.989,19.447,19.447,0,0,1-3.809.362,10.064,10.064,0,0,1-5.048-1.2A7.93,7.93,0,0,1,453.3,41.71a11.96,11.96,0,0,1-1.12-5.389,12.028,12.028,0,0,1,1.116-5.389,7.93,7.93,0,0,1,3.207-3.457,9.749,9.749,0,0,1,4.94-1.2,11,11,0,0,1,3.794.623,7.941,7.941,0,0,1,2.957,1.856l-.863,1.769a9.706,9.706,0,0,0-2.805-1.758,8.589,8.589,0,0,0-3.084-.529,6.341,6.341,0,0,0-5.106,2.091,9,9,0,0,0-1.787,5.994,8.982,8.982,0,0,0,1.812,6.067,6.648,6.648,0,0,0,5.3,2.08,14.3,14.3,0,0,0,4.711-.754v-6H461.5V35.929Z" transform="translate(-4521.367 -534)" fill="#fff"></path>
    <path id="Caminho_22474" data-name="Caminho 22474" d="M511.867,37.273v9.292H509.58V37.244L501.85,26.89H504.5l6.252,8.484L517,26.89H519.6Z" transform="translate(-4553.038 -534.395)" fill="#fff"></path>
    <path id="Caminho_22475" data-name="Caminho 22475" d="M319.4,29.543l7.31,17.019h2.316L320.38,26.89H318.4L309.75,46.562h2.33Z" transform="translate(-4430.558 -534.395)" fill="#fff"></path>
    <path id="Caminho_22476" data-name="Caminho 22476" d="M423.365,26.89H410.92V46.562h12.445v-1.9H413.178V37.523h6.56v-1.9h-6.56V28.789h10.188Z" transform="translate(-4495.062 -534.395)" fill="#fff"></path>
    <path id="Caminho_22477" data-name="Caminho 22477" d="M195.351,28.879a9.546,9.546,0,0,1,2.849,1.75l.866-1.758a8.285,8.285,0,0,0-2.99-1.866,10.786,10.786,0,0,0-2.537-.565l-1.4,1.881h.116a8.651,8.651,0,0,1,3.1.558Z" transform="translate(-4355.571 -534.108)" fill="#fff"></path>
    <path id="Caminho_22478" data-name="Caminho 22478" d="M185.419,51.2a5.965,5.965,0,0,0-2.414-1.548q-1.45-.515-3.987-1.131a11.032,11.032,0,0,1-3.461-1.283,2.687,2.687,0,0,1-.46-.388l-1.33,1.794a6.125,6.125,0,0,0,1.638.964,26.123,26.123,0,0,0,3.755,1.116,25.084,25.084,0,0,1,2.707.754,4.349,4.349,0,0,1,1.62.979,2.149,2.149,0,0,1,.612,1.591,3,3,0,0,1-1.283,2.595,6.244,6.244,0,0,1-3.657.921,10.749,10.749,0,0,1-3.537-.511,9.2,9.2,0,0,1-2.646-1.508L171.81,57.1a10.65,10.65,0,0,0,7.314,2.439,9.981,9.981,0,0,0,3.852-.681,5.625,5.625,0,0,0,2.537-1.943,4.969,4.969,0,0,0,.863-2.946A3.892,3.892,0,0,0,185.419,51.2Z" transform="translate(-4342.609 -547.121)" fill="#fff"></path>
    <path id="Caminho_22479" data-name="Caminho 22479" d="M464.188,97.07H451.468a1.548,1.548,0,1,0,0,3.1h12.659a1.548,1.548,0,0,0,.08-3.091Z" transform="translate(-4519.928 -579.14)" fill="#f7955b"></path>
    <path id="Caminho_22480" data-name="Caminho 22480" d="M505.788,97.06a1.548,1.548,0,1,0,1.548,1.548A1.548,1.548,0,0,0,505.788,97.06Z" transform="translate(-4554.561 -579.134)" fill="#fff"></path>
    <circle id="Elipse_26" data-name="Elipse 26" cx="1.548" cy="1.548" r="1.548" transform="translate(-4043.993 -482.074)" fill="#fff"></circle>
    <path id="Caminho_22481" data-name="Caminho 22481" d="M540.718,97.06a1.548,1.548,0,1,0,1.548,1.548A1.548,1.548,0,0,0,540.718,97.06Z" transform="translate(-4576.832 -579.134)" fill="#fff"></path>
  </g>
</svg>